<svg width="56" height="54" viewBox="0 0 56 54" fill="none" xmlns="http://www.w3.org/2000/svg">
<path d="M44.8257 19.1805C51.0672 29.138 48.8294 40.5141 40.6691 45.629C40.6691 45.629 40.6691 45.629 29.934 26.9158C19.3437 8.45485 18.7911 8.78303 18.7911 8.78303C29.767 8.46596 38.5842 9.22295 44.8257 19.1805Z" fill="url(#paint0_linear)"/>
<path d="M12.5079 33.0675L24.657 52.2449H12.7538H0.850586L12.5079 33.0675Z" fill="url(#paint1_linear)"/>
<path d="M0 8.92737L15.2097 8.92737L38.5437 46.9545C35.8392 49.7799 31.6002 51.2529 27.3018 51.9142L0 8.92737Z" fill="url(#paint2_linear)"/>
<defs>
<linearGradient id="paint0_linear" x1="25.3601" y1="4.6655" x2="48.1122" y2="40.9636" gradientUnits="userSpaceOnUse">
<stop offset="0.0833333" stop-color="#F25A05"/>
<stop offset="1" stop-color="#B600D8"/>
</linearGradient>
<linearGradient id="paint1_linear" x1="12.7538" y1="33.0675" x2="12.7538" y2="52.2449" gradientUnits="userSpaceOnUse">
<stop offset="0.0833333" stop-color="#F25A05"/>
<stop offset="1" stop-color="#B600D8"/>
</linearGradient>
<linearGradient id="paint2_linear" x1="5.45968" y1="5.50511" x2="33.6418" y2="50.4654" gradientUnits="userSpaceOnUse">
<stop offset="0.0833333" stop-color="#F25A05"/>
<stop offset="1" stop-color="#B600D8"/>
</linearGradient>
</defs>
</svg>
