<svg width="200" height="59" viewBox="0 0 200 59" fill="none" xmlns="http://www.w3.org/2000/svg">
<path d="M44.826 19.1805C51.0675 29.138 48.8296 40.5141 40.6693 45.629C40.6693 45.629 40.6693 45.629 29.9343 26.9158C19.3439 8.45485 18.7913 8.78303 18.7913 8.78303C29.7672 8.46596 38.5845 9.22295 44.826 19.1805Z" fill="white"/>
<path d="M12.5074 33.0675L24.6565 52.2449H12.7533H0.850098L12.5074 33.0675Z" fill="white"/>
<path d="M0 8.92737L15.2097 8.92737L38.5437 46.9545C35.8392 49.7799 31.6002 51.2529 27.3018 51.9142L0 8.92737Z" fill="white"/>
<path d="M82.8887 24.6266C84.3687 24.6266 85.662 24.92 86.7687 25.5066C87.8753 26.0933 88.7287 26.92 89.3287 27.9866C89.942 29.04 90.2487 30.26 90.2487 31.6466C90.2487 33.02 89.942 34.24 89.3287 35.3066C88.7287 36.3733 87.8687 37.2 86.7487 37.7866C85.642 38.3733 84.3553 38.6666 82.8887 38.6666H77.6287V24.6266H82.8887ZM82.6687 35.7066C83.962 35.7066 84.9687 35.3533 85.6887 34.6466C86.4087 33.94 86.7687 32.94 86.7687 31.6466C86.7687 30.3533 86.4087 29.3466 85.6887 28.6266C84.9687 27.9066 83.962 27.5466 82.6687 27.5466H81.0487V35.7066H82.6687ZM102.68 32.9066C102.68 33.2266 102.66 33.56 102.62 33.9066H94.8799C94.9333 34.6 95.1533 35.1333 95.5399 35.5066C95.9399 35.8666 96.4266 36.0466 96.9999 36.0466C97.8533 36.0466 98.4466 35.6866 98.7799 34.9666H102.42C102.233 35.7 101.893 36.36 101.4 36.9466C100.92 37.5333 100.313 37.9933 99.5799 38.3266C98.8466 38.66 98.0266 38.8266 97.1199 38.8266C96.0266 38.8266 95.0533 38.5933 94.1999 38.1266C93.3466 37.66 92.6799 36.9933 92.1999 36.1266C91.7199 35.26 91.4799 34.2466 91.4799 33.0866C91.4799 31.9266 91.7133 30.9133 92.1799 30.0466C92.6599 29.18 93.3266 28.5133 94.1799 28.0466C95.0333 27.58 96.0133 27.3466 97.1199 27.3466C98.1999 27.3466 99.1599 27.5733 99.9999 28.0266C100.84 28.48 101.493 29.1266 101.96 29.9666C102.44 30.8066 102.68 31.7866 102.68 32.9066ZM99.1799 32.0066C99.1799 31.42 98.9799 30.9533 98.5799 30.6066C98.1799 30.26 97.6799 30.0866 97.0799 30.0866C96.5066 30.0866 96.0199 30.2533 95.6199 30.5866C95.2333 30.92 94.9933 31.3933 94.8999 32.0066H99.1799ZM109.504 35.4666L111.924 27.5066H115.564L111.604 38.6666H107.384L103.424 27.5066H107.084L109.504 35.4666ZM127.104 24.6266V27.3666H123.384V38.6666H119.964V27.3666H116.244V24.6266H127.104ZM128.14 33.0666C128.14 31.92 128.353 30.9133 128.78 30.0466C129.22 29.18 129.813 28.5133 130.56 28.0466C131.307 27.58 132.14 27.3466 133.06 27.3466C133.847 27.3466 134.533 27.5066 135.12 27.8266C135.72 28.1466 136.18 28.5666 136.5 29.0866V27.5066H139.92V38.6666H136.5V37.0866C136.167 37.6066 135.7 38.0266 135.1 38.3466C134.513 38.6666 133.827 38.8266 133.04 38.8266C132.133 38.8266 131.307 38.5933 130.56 38.1266C129.813 37.6466 129.22 36.9733 128.78 36.1066C128.353 35.2266 128.14 34.2133 128.14 33.0666ZM136.5 33.0866C136.5 32.2333 136.26 31.56 135.78 31.0666C135.313 30.5733 134.74 30.3266 134.06 30.3266C133.38 30.3266 132.8 30.5733 132.32 31.0666C131.853 31.5466 131.62 32.2133 131.62 33.0666C131.62 33.92 131.853 34.6 132.32 35.1066C132.8 35.6 133.38 35.8466 134.06 35.8466C134.74 35.8466 135.313 35.6 135.78 35.1066C136.26 34.6133 136.5 33.94 136.5 33.0866ZM146.934 38.8266C145.961 38.8266 145.094 38.66 144.334 38.3266C143.574 37.9933 142.974 37.54 142.534 36.9666C142.094 36.38 141.848 35.7266 141.794 35.0066H145.174C145.214 35.3933 145.394 35.7066 145.714 35.9466C146.034 36.1866 146.428 36.3066 146.894 36.3066C147.321 36.3066 147.648 36.2266 147.874 36.0666C148.114 35.8933 148.234 35.6733 148.234 35.4066C148.234 35.0866 148.068 34.8533 147.734 34.7066C147.401 34.5466 146.861 34.3733 146.114 34.1866C145.314 34 144.648 33.8066 144.114 33.6066C143.581 33.3933 143.121 33.0666 142.734 32.6266C142.348 32.1733 142.154 31.5666 142.154 30.8066C142.154 30.1666 142.328 29.5866 142.674 29.0666C143.034 28.5333 143.554 28.1133 144.234 27.8066C144.928 27.5 145.748 27.3466 146.694 27.3466C148.094 27.3466 149.194 27.6933 149.994 28.3866C150.808 29.08 151.274 30 151.394 31.1466H148.234C148.181 30.76 148.008 30.4533 147.714 30.2266C147.434 30 147.061 29.8866 146.594 29.8866C146.194 29.8866 145.888 29.9666 145.674 30.1266C145.461 30.2733 145.354 30.48 145.354 30.7466C145.354 31.0666 145.521 31.3066 145.854 31.4666C146.201 31.6266 146.734 31.7866 147.454 31.9466C148.281 32.16 148.954 32.3733 149.474 32.5866C149.994 32.7866 150.448 33.12 150.834 33.5866C151.234 34.04 151.441 34.6533 151.454 35.4266C151.454 36.08 151.268 36.6666 150.894 37.1866C150.534 37.6933 150.008 38.0933 149.314 38.3866C148.634 38.68 147.841 38.8266 146.934 38.8266ZM160.367 38.6666L156.967 33.9866V38.6666H153.547V23.8666H156.967V32.0466L160.347 27.5066H164.567L159.927 33.1066L164.607 38.6666H160.367Z" fill="white"/>
</svg>
