<svg width="24" height="24" viewBox="0 0 24 24" fill="none" xmlns="http://www.w3.org/2000/svg">
<path d="M2.71429 6.21429H21.2857C21.6802 6.21429 22 5.89451 22 5.5V3.71429C22 3.31978 21.6802 3 21.2857 3H2.71429C2.31978 3 2 3.31978 2 3.71429V5.5C2 5.89451 2.31978 6.21429 2.71429 6.21429ZM2.71429 13.3571H21.2857C21.6802 13.3571 22 13.0374 22 12.6429V10.8571C22 10.4626 21.6802 10.1429 21.2857 10.1429H2.71429C2.31978 10.1429 2 10.4626 2 10.8571V12.6429C2 13.0374 2.31978 13.3571 2.71429 13.3571ZM2.71429 20.5H21.2857C21.6802 20.5 22 20.1802 22 19.7857V18C22 17.6055 21.6802 17.2857 21.2857 17.2857H2.71429C2.31978 17.2857 2 17.6055 2 18V19.7857C2 20.1802 2.31978 20.5 2.71429 20.5Z" fill="#F2F2F2"/>
</svg>
